<!DOCTYPE svg PUBLIC "-//W3C//DTD SVG 1.1//EN" "http://www.w3.org/Graphics/SVG/1.1/DTD/svg11.dtd">
<!-- Uploaded to: SVG Repo, www.svgrepo.com, Transformed by: SVG Repo Mixer Tools -->
<svg fill="#b53033" width="800px" height="800px" viewBox="0 0 24 24" id="bottle-2" data-name="Line Color" xmlns="http://www.w3.org/2000/svg" class="icon line-color">
<g id="SVGRepo_bgCarrier" stroke-width="0"/>
<g id="SVGRepo_tracerCarrier" stroke-linecap="round" stroke-linejoin="round"/>
<g id="SVGRepo_iconCarrier">
<path id="primary" d="M14,7.59V4a1,1,0,0,0-1-1H11a1,1,0,0,0-1,1V7.59A3.41,3.41,0,0,1,9,10H9a3.41,3.41,0,0,0-1,2.41V20a1,1,0,0,0,1,1h6a1,1,0,0,0,1-1V12.41A3.41,3.41,0,0,0,15,10h0A3.41,3.41,0,0,1,14,7.59Z" style="fill: none; stroke: #b53033; stroke-linecap: round; stroke-linejoin: round; stroke-width: 2;"/>
</g>
</svg>