<!DOCTYPE svg PUBLIC "-//W3C//DTD SVG 1.1//EN" "http://www.w3.org/Graphics/SVG/1.1/DTD/svg11.dtd">
<!-- Uploaded to: SVG Repo, www.svgrepo.com, Transformed by: SVG Repo Mixer Tools -->
<svg fill="#b53033" height="800px" width="800px" version="1.1" id="Layer_1" xmlns="http://www.w3.org/2000/svg" xmlns:xlink="http://www.w3.org/1999/xlink" viewBox="0 0 512.003 512.003" xml:space="preserve">
<g id="SVGRepo_bgCarrier" stroke-width="0"/>
<g id="SVGRepo_tracerCarrier" stroke-linecap="round" stroke-linejoin="round"/>
<g id="SVGRepo_iconCarrier"> <g> <g> <g> <path d="M366.938,127.999c-13.943,0-26.342,6.724-34.133,17.092c-7.791-10.368-20.19-17.092-34.133-17.092 c-4.71,0-8.533,3.814-8.533,8.533s3.823,8.533,8.533,8.533c14.114,0,25.6,11.486,25.6,25.6c0,4.719,3.823,8.533,8.533,8.533 s8.533-3.814,8.533-8.533c0-14.114,11.486-25.6,25.6-25.6c4.71,0,8.533-3.814,8.533-8.533S371.648,127.999,366.938,127.999z"/> <path d="M511.133,429.52L418.205,92.966c-0.094-10.283-12.442-28.442-80.879-49.314l-13.099-13.09 c-0.003-0.003-0.005-0.004-0.008-0.007l-10.006-10.006l-2.065-4.147C307.088,6.281,296.925,0,285.61,0h-59.196 c-11.324,0-21.495,6.289-26.547,16.427l-2.057,4.122l-10.015,10.015c-0.003,0.003-0.005,0.004-0.008,0.007l-13.082,13.082 c-68.275,20.821-80.725,38.938-80.888,49.237L6.328,409.811c-0.035,0.107-0.078,0.21-0.109,0.32 c-0.046,0.16-0.076,0.32-0.112,0.481l-5.251,19.02c-3.499,13.363,4.454,27.307,17.732,31.113l26.624,7.603 c6.75,1.929,13.815,1.033,19.891-2.483c6.076-3.533,10.342-9.242,11.964-15.898l42.428-159.838v179.209 c0,23.518,19.14,42.667,42.667,42.667H349.87c23.526,0,42.667-19.149,42.667-42.667v-179.2l37.541,141.476 c0.002,0.008,0.003,0.016,0.006,0.024c0.001,0.004,0.003,0.008,0.004,0.012l4.817,18.155c1.672,6.835,5.939,12.535,12.015,16.068 c6.084,3.524,13.15,4.403,19.891,2.475l26.624-7.595C506.713,456.946,514.666,442.994,511.133,429.52z M210.866,31.633 c0.649-0.648,1.186-1.399,1.604-2.227l2.671-5.367c2.15-4.301,6.46-6.972,11.273-6.972h59.196c4.804,0,9.122,2.662,11.273,6.963 l2.688,5.385c0.41,0.819,0.964,1.587,1.621,2.236l6.576,6.581c-10.585,18.409-30.317,30.03-51.764,30.03 c-21.447,0-41.172-11.614-51.749-30.022L210.866,31.633z M56.528,451.11c-2.022,1.178-4.386,1.485-6.622,0.819l-26.624-7.603 c-4.429-1.263-7.083-5.914-5.948-10.257l3.041-11.013l42.932,12.262l-2.769,10.433C59.976,448.021,58.55,449.932,56.528,451.11z M136.562,469.337V224.703c0-4.284-3.183-7.91-7.432-8.465c-0.375-0.051-0.742-0.068-1.109-0.068c-3.823,0-7.245,2.56-8.243,6.34 l-52.09,196.302L24.92,406.595l85.556-309.892c0.307-0.87,0.469-1.783,0.486-2.714c0.879-1.929,9.276-16.128,70.724-34.611 c1.348-0.41,2.577-1.143,3.576-2.142l6.579-6.588c12.504,19.025,32.939,31.645,55.63,34.2v410.088h-85.309 C148.04,494.937,136.562,483.451,136.562,469.337z M392.255,222.519c-1.101-4.139-5.069-6.852-9.353-6.272 c-4.25,0.555-7.432,4.181-7.432,8.465v244.625c0,14.114-11.486,25.6-25.6,25.6h-85.332V84.849 c22.697-2.555,43.133-15.175,55.636-34.209l6.596,6.596c0.998,0.998,2.227,1.732,3.576,2.142 c61.448,18.483,69.845,32.683,70.724,34.611c0.017,0.725,0.111,1.442,0.307,2.15l85.692,310.351l-42.76,12.211L392.255,222.519z M488.75,444.334l-26.633,7.603c-2.244,0.631-4.599,0.35-6.622-0.819c-2.031-1.186-3.456-3.089-4.053-5.53l-2.754-10.381 l42.925-12.258l3.042,11.017C495.824,438.412,493.17,443.071,488.75,444.334z"/> </g> </g> </g> </g>
</svg>